<mxfile host="app.diagrams.net" modified="2024-04-29T05:07:24.290Z" agent="Mozilla/5.0 (Windows NT 10.0; Win64; x64) AppleWebKit/537.36 (KHTML, like Gecko) Chrome/124.0.0.0 Safari/537.36 Edg/124.0.0.0" etag="RH6ADT53kMTyzRKAPMas" version="24.3.1" type="device">
  <diagram name="第 1 页" id="dxO3Lpq-gJ4N2nwKSiNj">
    <mxGraphModel dx="1593" dy="884" grid="1" gridSize="10" guides="1" tooltips="1" connect="1" arrows="1" fold="1" page="1" pageScale="1" pageWidth="3300" pageHeight="4681" math="0" shadow="0">
      <root>
        <mxCell id="0" />
        <mxCell id="1" parent="0" />
        <mxCell id="I9Qw4jxGawo0n5iWJraJ-1" value="" style="ellipse;whiteSpace=wrap;html=1;aspect=fixed;dashed=1;dashPattern=1 2;fillColor=#dae8fc;strokeColor=none;gradientColor=none;shadow=0;" vertex="1" parent="1">
          <mxGeometry x="189.81" y="289.55" width="600" height="600" as="geometry" />
        </mxCell>
        <mxCell id="I9Qw4jxGawo0n5iWJraJ-3" value="" style="endArrow=classic;html=1;rounded=0;dashed=1;opacity=20;" edge="1" parent="1">
          <mxGeometry width="50" height="50" relative="1" as="geometry">
            <mxPoint x="276.0649802896437" y="230.64778893556874" as="sourcePoint" />
            <mxPoint x="887.046968347492" y="689.798927722761" as="targetPoint" />
          </mxGeometry>
        </mxCell>
        <mxCell id="I9Qw4jxGawo0n5iWJraJ-5" value="" style="group;rotation=35;" vertex="1" connectable="0" parent="1">
          <mxGeometry x="77.44854454328438" y="96.31099287119372" width="226.9902122815535" height="140.35187648516794" as="geometry" />
        </mxCell>
        <mxCell id="I9Qw4jxGawo0n5iWJraJ-6" value="" style="rounded=0;whiteSpace=wrap;html=1;movable=1;resizable=1;rotatable=1;deletable=1;editable=1;locked=0;connectable=1;rotation=35;" vertex="1" parent="I9Qw4jxGawo0n5iWJraJ-5">
          <mxGeometry x="1.8915851023462793" y="8.02010722772388" width="194.56303909847443" height="105.26390736387596" as="geometry" />
        </mxCell>
        <mxCell id="I9Qw4jxGawo0n5iWJraJ-7" style="edgeStyle=orthogonalEdgeStyle;rounded=0;orthogonalLoop=1;jettySize=auto;html=1;exitX=0;exitY=0.5;exitDx=0;exitDy=0;" edge="1" parent="I9Qw4jxGawo0n5iWJraJ-5" source="I9Qw4jxGawo0n5iWJraJ-8">
          <mxGeometry relative="1" as="geometry">
            <mxPoint x="206.18277615574448" y="138.34684967823696" as="targetPoint" />
          </mxGeometry>
        </mxCell>
        <mxCell id="I9Qw4jxGawo0n5iWJraJ-8" value="" style="triangle;whiteSpace=wrap;html=1;rotation=-145;movable=1;resizable=1;rotatable=1;deletable=1;editable=1;locked=0;connectable=1;" vertex="1" parent="I9Qw4jxGawo0n5iWJraJ-5">
          <mxGeometry x="117.27827634546934" y="40.10053613861941" width="97.28151954923722" height="140.35187648516794" as="geometry" />
        </mxCell>
        <mxCell id="I9Qw4jxGawo0n5iWJraJ-9" value="&lt;div style=&quot;background-color: rgb(255, 255, 255); font-family: Consolas, &amp;quot;Courier New&amp;quot;, monospace; font-size: 14px; line-height: 19px; white-space-collapse: preserve;&quot;&gt;ViewStart&lt;/div&gt;" style="text;html=1;align=center;verticalAlign=middle;resizable=0;points=[];autosize=1;strokeColor=none;fillColor=none;" vertex="1" parent="I9Qw4jxGawo0n5iWJraJ-5">
          <mxGeometry x="68.49755307038842" y="45.65010722772388" width="90" height="30" as="geometry" />
        </mxCell>
        <mxCell id="I9Qw4jxGawo0n5iWJraJ-11" value="&lt;div style=&quot;font-family: Consolas, &amp;quot;Courier New&amp;quot;, monospace; font-size: 14px; line-height: 19px; white-space-collapse: preserve;&quot;&gt;ViewDir&lt;/div&gt;" style="text;html=1;align=center;verticalAlign=middle;resizable=0;points=[];autosize=1;strokeColor=none;fillColor=none;" vertex="1" parent="1">
          <mxGeometry x="850.0031918122977" y="699.9991957920709" width="80" height="30" as="geometry" />
        </mxCell>
        <mxCell id="I9Qw4jxGawo0n5iWJraJ-21" value="" style="shape=curlyBracket;whiteSpace=wrap;html=1;rounded=1;flipH=1;labelPosition=right;verticalLabelPosition=middle;align=left;verticalAlign=middle;size=0.5;rotation=37;direction=south;flipV=1;" vertex="1" parent="1">
          <mxGeometry x="198.99" y="443.01" width="640" height="20" as="geometry" />
        </mxCell>
        <mxCell id="I9Qw4jxGawo0n5iWJraJ-23" value="&lt;div style=&quot;font-family: Consolas, &amp;quot;Courier New&amp;quot;, monospace; font-size: 14px; line-height: 19px; white-space: pre;&quot;&gt;DistanceAlongRay&lt;/div&gt;" style="text;html=1;align=center;verticalAlign=middle;whiteSpace=wrap;rounded=0;" vertex="1" parent="1">
          <mxGeometry x="450" y="470" width="60" height="30" as="geometry" />
        </mxCell>
        <mxCell id="I9Qw4jxGawo0n5iWJraJ-25" value="&lt;div style=&quot;font-family: Consolas, &amp;quot;Courier New&amp;quot;, monospace; font-size: 14px; line-height: 19px; white-space: pre;&quot;&gt;ViewEnd&lt;/div&gt;" style="text;html=1;align=center;verticalAlign=middle;whiteSpace=wrap;rounded=0;" vertex="1" parent="1">
          <mxGeometry x="793" y="591" width="60" height="30" as="geometry" />
        </mxCell>
        <mxCell id="I9Qw4jxGawo0n5iWJraJ-27" value="" style="ellipse;whiteSpace=wrap;html=1;aspect=fixed;fillColor=#000000;" vertex="1" parent="1">
          <mxGeometry x="783" y="611" width="10" height="10" as="geometry" />
        </mxCell>
      </root>
    </mxGraphModel>
  </diagram>
</mxfile>
